<?xml version="1.0" encoding="utf-8"?>
<!-- Generator: Adobe Illustrator 22.0.0, SVG Export Plug-In . SVG Version: 6.00 Build 0)  -->
<svg version="1.1" id="Layer_1" xmlns="http://www.w3.org/2000/svg" xmlns:xlink="http://www.w3.org/1999/xlink" x="0px" y="0px"
	 viewBox="0 0 1700.8 850.4" style="enable-background:new 0 0 1700.8 850.4;" xml:space="preserve">
<style type="text/css">
	.st0{fill:#EA0029;}
	.st1{font-family:'Helvetica';}
	.st2{font-size:271.9254px;}
	.st3{fill:#FE2C07;}
	.st4{font-size:73.1722px;}
</style>
<g>
	<g>
		<g>
			<path class="st0" d="M175.6,353.1h-56.4v-51.6h174.6v51.6h-56.3v149.8h-61.9V353.1z"/>
			<path class="st0" d="M303.5,301.5H473v51.6H365.4v25.1H473v48H365.4v25.1H473v51.6H303.5V301.5z"/>
			<path class="st0" d="M483.4,301.5h101.7c67,0,90.7,49.6,90.7,100.4c0,61.8-32.7,101-102.8,101h-89.6V301.5z M545.4,451.2h24.2
				c38.6,0,44.2-31.3,44.2-50.2c0-12.7-4-47.9-48.7-47.9h-19.7V451.2z"/>
			<path class="st0" d="M764.8,425.7l-18.9-31.4l-18.4,31.4h-45.4l43.1-63.5l-41.5-60.7h45.4l16.8,30l17.3-30h45.4l-41.5,60.7
				l43.1,63.5H764.8z"/>
		</g>
	</g>
</g>
<text transform="matrix(1 0 0 1 830.3523 501.4792)" class="st1 st2">MAHE</text>
<path class="st3" d="M169.8,591.4c-15.4,6.2-20.8-4.2-26.7-14.8c-6.8,9-10.7,22-26.8,14.5c4.4-6.4,8.7-13.3,13.7-19.8
	c3.4-4.5,4-8,0.1-12.7c-4.5-5.4-8.1-11.5-12.3-17.6c12.8-4.5,20.3,0.4,24.9,13.2c5.6-11.4,12-18.4,25-13.3
	c-3.7,5.4-6.9,11.1-11.1,15.8c-5.3,5.8-4.4,10.3,0.2,15.9C161.5,578.4,165.3,584.9,169.8,591.4z"/>
<text transform="matrix(1 0 0 1 184.321 592.0691)" class="st1 st4">= independently organized TED event</text>
</svg>
